Coordinates
version=1
nRows=19
nColumns=34
inDegrees=yes

Units are S.I. units (second, meters, Newtons, ...)
If the header above contains a line with 'inDegrees', this indicates whether rotational values are in degrees (yes) or radians (no).

endheader
time	pelvis_tilt	pelvis_list	pelvis_rotation	pelvis_tx	pelvis_ty	pelvis_tz	hip_flexion_r	hip_adduction_r	hip_rotation_r	knee_angle_r	ankle_angle_r	subtalar_angle_r	mtp_angle_r	hip_flexion_l	hip_adduction_l	hip_rotation_l	knee_angle_l	ankle_angle_l	subtalar_angle_l	mtp_angle_l	lumbar_extension	lumbar_bending	lumbar_rotation	arm_flex_r	arm_add_r	arm_rot_r	elbow_flex_r	pro_sup_r	arm_flex_l	arm_add_l	arm_rot_l	elbow_flex_l	pro_sup_l
      0.00000000	     -3.17790805	      3.05854436	     -0.35064576	      0.58403813	      0.88397032	     -0.00972320	      3.54262244	      2.07577489	     -7.89862582	      6.77786017	     14.71489376	      1.70067228	      0.00000000	      7.09034346	     -5.84138868	     -9.96619685	     11.62332427	      6.74515795	     -6.11491017	      0.00000000	     -4.33425354	     -2.04032877	     -5.42774785	      6.45115651	    -11.78455801	      5.89120160	    103.98083548	     96.46034456	     -3.26325010	    -10.55260954	     -7.66651651	    109.58788715	     98.16969280
      0.01666670	     -5.11185847	      2.79929503	     -1.61314251	      0.58516522	      0.88362567	     -0.00916960	      6.12665885	      2.37806682	     -6.41150049	      7.65304655	     16.27336992	      1.19781435	      0.00000000	      9.28603076	     -6.26730466	    -12.76390060	     12.05673483	      7.73920775	     -4.17199640	      0.00000000	     -1.11673952	     -1.06358224	     -4.24924528	      6.23117093	    -11.59256968	      3.78154733	    102.00062514	     96.02786561	     -4.79915159	     -9.94039656	     -8.78859721	    108.48814022	     97.36272751
      0.03333330	     -5.53741822	      3.00802845	     -2.58668033	      0.58597446	      0.88345617	     -0.00734750	      6.32407296	      2.38504219	     -6.90176980	      7.31711916	     15.51119775	      0.75467641	      0.00000000	      9.89213257	     -6.46810720	    -14.40205277	     12.47853661	      7.71952695	     -4.92716205	      0.00000000	     -0.28841091	     -1.25189294	     -3.21918096	      6.40274563	    -11.85038860	      3.79019035	    101.30845105	     95.94080036	     -4.89016666	    -10.66512571	     -8.86198068	    108.27008354	     97.06862187
      0.05000000	     -5.56664192	      3.12422583	     -3.03598694	      0.58591452	      0.88423381	     -0.00673994	      6.29302239	      2.40099492	     -6.54984616	      7.16081034	     15.56532895	      0.39663229	      0.00000000	      9.72326398	     -6.47622454	    -15.44566439	     12.26001667	      7.88595698	     -5.82332094	      0.00000000	      0.00679705	     -1.48532771	     -2.59273609	      6.24049865	    -12.02638920	      4.10641166	    100.21148932	     95.76207811	     -4.41174772	    -10.97623102	     -8.34275692	    108.30431123	     96.79033230
      0.06666670	     -5.58970316	      3.17888696	     -3.09511652	      0.58545931	      0.88140269	     -0.00585574	      6.28217339	      2.50043231	     -6.30489515	      7.00435907	     15.48465410	     -0.39187588	      0.00000000	      9.78953154	     -6.50081421	    -15.87929504	     12.34693434	      7.87408832	     -6.61624184	      0.00000000	      0.11300800	     -1.45836343	     -2.24527266	      6.52896521	    -11.79399555	      4.76159868	     99.97903788	     95.39329019	     -3.71045884	    -11.84860247	     -7.14085317	    108.71183052	     96.51755764
      0.08333330	     -5.61591165	      3.23673367	     -3.16336389	      0.58525114	      0.88636726	     -0.00515484	      6.17434896	      2.52435421	     -5.99529564	      6.66175049	     15.01999746	     -0.61751400	      0.00000000	      9.81156411	     -6.45057032	    -16.13652454	     12.40600892	      7.72954903	     -7.03191726	      0.00000000	      0.10600316	     -1.51452173	     -1.68466559	      6.88087995	    -11.40739361	      5.10574360	     99.62606148	     95.03510522	     -3.85295967	    -11.81864028	     -6.06983268	    109.61756683	     96.37274823
      0.10000000	     -5.72975338	      3.32855314	     -3.09783727	      0.58539212	      0.89001512	     -0.00472124	      6.06857918	      2.45541393	     -5.78068348	      6.19688410	     14.37707915	     -0.90132381	      0.00000000	      9.76123339	     -6.28163359	    -16.36394890	     11.95745690	      7.12085335	     -7.09648675	      0.00000000	      0.16888409	     -1.51528484	     -1.20946848	      7.56801688	    -10.75254826	      5.53807058	     99.14344107	     94.60333190	     -4.12260840	    -11.81372882	     -4.77077381	    110.84945876	     96.26069585
      0.11666670	     -5.78749728	      3.37387266	     -3.04422243	      0.58444579	      0.88866267	     -0.00491650	      6.00942373	      2.42410347	     -5.39682110	      5.83744404	     13.90444761	     -1.36630221	      0.00000000	      9.69669812	     -6.12070148	    -16.32738036	     11.57291177	      6.95435737	     -7.11044259	      0.00000000	      0.12189745	     -1.52937440	     -0.88197233	      8.94003406	     -9.99880867	      6.22361169	     98.36202960	     93.98523379	     -4.34476535	    -11.92363743	     -2.82188218	    113.19681494	     96.15835936
      0.13333330	     -5.73075271	      3.35788285	     -3.10084497	      0.58454802	      0.88890354	     -0.00430351	      5.86496036	      2.47832841	     -5.12963960	      5.56122999	     13.49797408	     -1.82462935	      0.00000000	      9.55001622	     -6.10290506	    -16.45625006	     11.31599049	      6.71016236	     -7.03975196	      0.00000000	     -0.05844395	     -1.41711498	     -0.92353689	     11.03931793	     -8.96322118	      7.35393805	     97.09174921	     93.41324431	     -3.46580917	    -12.81580639	     -0.75170130	    114.30691573	     96.08716420
      0.15000000	     -5.69452410	      3.32946746	     -3.10161397	      0.58351665	      0.88604377	     -0.00545779	      5.86329893	      2.50413212	     -4.90480728	      5.43888173	     13.26324022	     -2.33301599	      0.00000000	      9.57293216	     -6.10248774	    -16.44543935	     11.34865272	      6.69865725	     -6.95376757	      0.00000000	     -0.20879719	     -1.26234822	     -0.90041306	     13.73601372	     -7.86487264	      8.70097306	     95.48479296	     92.84406576	     -1.98065431	    -14.11302908	      1.51582424	    115.33801679	     96.01463468
      0.16666670	     -5.58747222	      3.38154044	     -3.08416009	      0.58337097	      0.88699669	     -0.00533727	      5.67942936	      2.45944679	     -4.66543708	      5.18199524	     12.95387491	     -2.71046742	      0.00000000	      9.39640257	     -6.02062648	    -16.44217499	     11.21747651	      6.40825981	     -6.82151100	      0.00000000	     -0.34686306	     -1.27215794	     -1.03932627	     17.12469622	     -6.32311694	     10.43386083	     93.29117979	     92.22331205	      0.67056851	    -16.23611900	      5.18143171	    117.44411494	     96.00478244
      0.18333330	     -5.45633397	      3.38731328	     -3.04984107	      0.58043494	      0.88568506	     -0.00508404	      5.61237400	      2.46388010	     -4.53339139	      5.12469828	     12.90356851	     -3.10874213	      0.00000000	      9.38597678	     -6.04152021	    -16.48983659	     11.30960916	      6.31684860	     -6.85967699	      0.00000000	     -0.65781872	     -1.32253201	     -1.17779552	     21.07165860	     -4.45568108	     12.07064677	     90.56707170	     91.67538869	      4.01497135	    -18.85475065	      9.95343894	    120.23286182	     96.12128116
      0.20000000	     -5.29601812	      3.41082275	     -2.90436590	      0.57941123	      0.88409495	     -0.00389943	      5.46560911	      2.45464680	     -4.40106477	      4.97146517	     12.87375359	     -3.50582565	      0.00000000	      9.38563510	     -6.04899813	    -16.34290699	     11.45534280	      6.22385505	     -6.83735284	      0.00000000	     -0.96207003	     -1.35559584	     -1.36900001	     25.03738183	     -2.29759443	     13.13316836	     88.06799752	     91.12650364	      7.53709985	    -21.48018607	     15.48637186	    124.31658575	     96.37389720
      0.21666670	     -5.11605894	      3.41895159	     -2.74299323	      0.57763510	      0.88537284	     -0.00269436	      5.28792805	      2.51649817	     -4.31126786	      4.80928677	     12.76545504	     -3.89008352	      0.00000000	      9.42630939	     -6.12638660	    -16.37762308	     11.62577377	      6.04369332	     -6.80485239	      0.00000000	     -1.28779836	     -1.41950764	     -1.63421313	     29.01678355	     -0.00700076	     13.60162837	     85.00725530	     90.25447499	     11.34431116	    -24.53188920	     22.50244562	    127.98224161	     96.93419072
      0.23333330	     -4.97442459	      3.37364447	     -2.49776176	      0.57726900	      0.88410999	     -0.00199026	      5.15876206	      2.64279785	     -4.13269283	      4.74839743	     12.89463858	     -4.24298298	      0.00000000	      9.55753835	     -6.26530184	    -16.23775533	     11.99044335	      6.14576220	     -6.73130448	      0.00000000	     -1.62393377	     -1.40021838	     -1.97309923	     32.29674469	      2.36673138	     12.70286514	     82.54286390	     89.50977936	     15.50795872	    -27.20975108	     29.50302598	    133.84011552	     97.74218385
      0.25000000	     -4.69464916	      3.33720234	     -2.21857887	      0.57780586	      0.88419328	     -0.00287535	      4.88271035	      2.72783118	     -4.12310221	      4.74608370	     12.95085015	     -4.49928656	      0.00000000	      9.40395819	     -6.29936924	    -15.95908295	     12.15758194	      6.32353130	     -6.62401107	      0.00000000	     -1.75100937	     -1.31240207	     -1.37101602	     34.70266606	      3.54126784	     10.77873618	     80.83080214	     88.39524315	     21.07843748	    -28.98763916	     38.26505122	    138.06527479	     99.73879043
      0.26666670	     -4.61751917	      3.32879119	     -1.95203688	      0.57767664	      0.88606666	     -0.00543291	      4.73123932	      2.70208611	     -4.08000540	      4.61504011	     12.91892814	     -4.56984247	      0.00000000	      9.43313520	     -6.25990080	    -15.86679231	     12.28197972	      6.35330980	     -6.44638972	      0.00000000	     -1.60152788	     -1.06864926	     -0.80694566	     36.32182660	      4.45998571	      8.12237747	     79.49532268	     87.67452035	     25.71578729	    -29.44193473	     46.69290475	    141.15597860	    102.06905351
      0.28333330	     -4.50840047	      3.34338434	     -1.68575278	      0.57945082	      0.88367383	     -0.00581527	      4.48415120	      2.63189434	     -4.03358296	      4.45640765	     12.92373587	     -4.81409266	      0.00000000	      9.26841280	     -6.13682792	    -15.77202855	     12.19756644	      6.48347587	     -6.26642053	      0.00000000	     -1.30163791	     -0.66146950	     -0.03690104	     37.93464530	      5.18621574	      5.20066280	     77.71861914	     87.54215998	     29.68124640	    -29.02318584	     53.25910931	    143.57291763	    104.03484239
      0.30000000	     -4.44454664	      3.39137112	     -1.60135772	      0.58058408	      0.88558394	     -0.00470402	      4.26598394	      2.56063003	     -4.02884731	      4.30582125	     12.98670686	     -4.95491919	      0.00000000	      9.05624350	     -6.01755995	    -15.82510578	     12.06425463	      6.54402329	     -6.00896821	      0.00000000	     -0.95353024	     -0.24459169	      0.96466993	     39.23637531	      5.77581910	      1.82599436	     76.57810449	     87.98595843	     32.76926950	    -28.15530124	     57.90160004	    144.59172544	    105.28279621
